<?xml version="1.0" encoding="UTF-8"?>
<svg id="Layer_1" xmlns="http://www.w3.org/2000/svg" version="1.1" viewBox="0 0 16 16">
  <!-- Generator: Adobe Illustrator 29.3.1, SVG Export Plug-In . SVG Version: 2.1.0 Build 151)  -->
  <path d="M10.1,12.6c1.2-1.2,1.9-2.9,1.9-4.6,0-1.7-.7-3.4-1.9-4.6l-.7.7c1,1,1.6,2.4,1.6,3.9,0,1.5-.6,2.9-1.6,3.9l.7.7Z"/>
  <path d="M10,8c0,1.2-.5,2.3-1.3,3.2l-.7-.7c.7-.7,1-1.5,1-2.5,0-1-.4-1.8-1-2.5l.7-.7c.8.8,1.3,2,1.3,3.2M7,4c0-.3-.2-.5-.5-.5-.1,0-.2,0-.3.1l-2.4,1.9H1.5c-.3,0-.5.2-.5.5v4c0,.3.2.5.5.5h2.3l2.4,1.9c.2.2.5.1.7,0,0,0,.1-.2.1-.3V4ZM4.3,6.4l1.7-1.3v5.9l-1.7-1.4c0,0-.2-.1-.3-.1h-2v-3h2c.1,0,.2,0,.3-.1"/>
</svg>